<svg xmlns="http://www.w3.org/2000/svg" width="1440" height="900"><path d="M788,464L688,528L795,553Z" fill="#569fc9" stroke="#569fc9" stroke-width="1.51"/><path d="M788,464L638,487L688,528Z" fill="#62a5cc" stroke="#62a5cc" stroke-width="1.51"/><path d="M795,553L877,456L788,464Z" fill="#539dc8" stroke="#539dc8" stroke-width="1.51"/><path d="M688,528L668,682L795,553Z" fill="#4e9bc1" stroke="#4e9bc1" stroke-width="1.51"/><path d="M638,487L569,550L688,528Z" fill="#6ba6cd" stroke="#6ba6cd" stroke-width="1.51"/><path d="M569,550L668,682L688,528Z" fill="#5f9fc4" stroke="#5f9fc4" stroke-width="1.51"/><path d="M668,682L800,705L795,553Z" fill="#4194b1" stroke="#4194b1" stroke-width="1.51"/><path d="M795,553L936,584L877,456Z" fill="#4395c4" stroke="#4395c4" stroke-width="1.51"/><path d="M800,705L936,584L795,553Z" fill="#3891b6" stroke="#3891b6" stroke-width="1.51"/><path d="M854,331L782,313L788,464Z" fill="#76aad0" stroke="#76aad0" stroke-width="1.51"/><path d="M788,464L655,328L638,487Z" fill="#74add1" stroke="#74add1" stroke-width="1.51"/><path d="M638,487L539,459L569,550Z" fill="#79abd1" stroke="#79abd1" stroke-width="1.51"/><path d="M782,313L655,328L788,464Z" fill="#7dafd3" stroke="#7dafd3" stroke-width="1.51"/><path d="M977,452L854,331L877,456Z" fill="#5ea0c9" stroke="#5ea0c9" stroke-width="1.51"/><path d="M877,456L854,331L788,464Z" fill="#64a3cc" stroke="#64a3cc" stroke-width="1.51"/><path d="M655,328L539,459L638,487Z" fill="#83b2d4" stroke="#83b2d4" stroke-width="1.51"/><path d="M936,584L977,452L877,456Z" fill="#4496c0" stroke="#4496c0" stroke-width="1.51"/><path d="M668,682L762,769L800,705Z" fill="#3d8fa1" stroke="#3d8fa1" stroke-width="1.51"/><path d="M982,659L999,600L936,584Z" fill="#278aa8" stroke="#278aa8" stroke-width="1.51"/><path d="M936,584L999,600L977,452Z" fill="#348fb6" stroke="#348fb6" stroke-width="1.51"/><path d="M927,721L936,584L800,705Z" fill="#278aa6" stroke="#278aa6" stroke-width="1.51"/><path d="M569,550L509,642L668,682Z" fill="#65a0bd" stroke="#65a0bd" stroke-width="1.51"/><path d="M668,682L620,781L762,769Z" fill="#47909d" stroke="#47909d" stroke-width="1.51"/><path d="M395,592L509,642L569,550Z" fill="#78a7c7" stroke="#78a7c7" stroke-width="1.51"/><path d="M854,331L763,239L782,313Z" fill="#89b1d4" stroke="#89b1d4" stroke-width="1.51"/><path d="M782,313L763,239L655,328Z" fill="#90b6d7" stroke="#90b6d7" stroke-width="1.51"/><path d="M887,185L763,239L854,331Z" fill="#8eb2d4" stroke="#8eb2d4" stroke-width="1.51"/><path d="M862,794L927,721L800,705Z" fill="#2b8597" stroke="#2b8597" stroke-width="1.51"/><path d="M927,721L982,659L936,584Z" fill="#2288a2" stroke="#2288a2" stroke-width="1.51"/><path d="M655,328L519,327L539,459Z" fill="#98b8d8" stroke="#98b8d8" stroke-width="1.51"/><path d="M763,239L623,247L655,328Z" fill="#9cbbda" stroke="#9cbbda" stroke-width="1.51"/><path d="M623,247L519,327L655,328Z" fill="#a4bddb" stroke="#a4bddb" stroke-width="1.51"/><path d="M539,459L395,592L569,550Z" fill="#80abd1" stroke="#80abd1" stroke-width="1.51"/><path d="M509,642L620,781L668,682Z" fill="#5a99a9" stroke="#5a99a9" stroke-width="1.51"/><path d="M519,327L464,418L539,459Z" fill="#9ab9d9" stroke="#9ab9d9" stroke-width="1.51"/><path d="M762,769L862,794L800,705Z" fill="#338796" stroke="#338796" stroke-width="1.51"/><path d="M817,885L862,794L762,769Z" fill="#307f8a" stroke="#307f8a" stroke-width="1.51"/><path d="M697,888L817,885L762,769Z" fill="#367d86" stroke="#367d86" stroke-width="1.51"/><path d="M509,642L580,803L620,781Z" fill="#5d97a1" stroke="#5d97a1" stroke-width="1.51"/><path d="M519,327L409,305L464,418Z" fill="#acc0dd" stroke="#acc0dd" stroke-width="1.51"/><path d="M623,247L525,255L519,327Z" fill="#afc1de" stroke="#afc1de" stroke-width="1.51"/><path d="M977,452L1041,313L854,331Z" fill="#69a1c3" stroke="#69a1c3" stroke-width="1.51"/><path d="M1113,526L1084,440L977,452Z" fill="#3e93ae" stroke="#3e93ae" stroke-width="1.51"/><path d="M1113,526L977,452L999,600Z" fill="#348faf" stroke="#348faf" stroke-width="1.51"/><path d="M1084,440L1041,313L977,452Z" fill="#579bb6" stroke="#579bb6" stroke-width="1.51"/><path d="M1041,313L887,185L854,331Z" fill="#80abcc" stroke="#80abcc" stroke-width="1.51"/><path d="M690,94L579,146L623,247Z" fill="#b5c6e1" stroke="#b5c6e1" stroke-width="1.51"/><path d="M623,247L579,146L525,255Z" fill="#b7c5e0" stroke="#b7c5e0" stroke-width="1.51"/><path d="M464,418L395,592L539,459Z" fill="#8cb2d5" stroke="#8cb2d5" stroke-width="1.51"/><path d="M509,642L391,718L580,803Z" fill="#6a9da9" stroke="#6a9da9" stroke-width="1.51"/><path d="M338,533L395,592L464,418Z" fill="#90b4d5" stroke="#90b4d5" stroke-width="1.51"/><path d="M1162,695L1113,526L999,600Z" fill="#1a8598" stroke="#1a8598" stroke-width="1.51"/><path d="M1162,695L999,600L982,659Z" fill="#148494" stroke="#148494" stroke-width="1.51"/><path d="M1045,753L982,659L927,721Z" fill="#198290" stroke="#198290" stroke-width="1.51"/><path d="M992,898L1045,753L927,721Z" fill="#197a7e" stroke="#197a7e" stroke-width="1.51"/><path d="M697,888L762,769L620,781Z" fill="#43878f" stroke="#43878f" stroke-width="1.51"/><path d="M580,803L697,888L620,781Z" fill="#4e888e" stroke="#4e888e" stroke-width="1.51"/><path d="M992,898L927,721L862,794Z" fill="#207a85" stroke="#207a85" stroke-width="1.51"/><path d="M979,82L850,104L887,185Z" fill="#9ab7d6" stroke="#9ab7d6" stroke-width="1.51"/><path d="M1084,440L1105,359L1041,313Z" fill="#5d9cb0" stroke="#5d9cb0" stroke-width="1.51"/><path d="M1204,416L1105,359L1084,440Z" fill="#5096a7" stroke="#5096a7" stroke-width="1.51"/><path d="M525,255L409,305L519,327Z" fill="#b5c4de" stroke="#b5c4de" stroke-width="1.51"/><path d="M409,305L356,425L464,418Z" fill="#aac0dd" stroke="#aac0dd" stroke-width="1.51"/><path d="M690,94L623,247L763,239Z" fill="#a8c1dd" stroke="#a8c1dd" stroke-width="1.51"/><path d="M525,255L407,231L409,305Z" fill="#bfc8e2" stroke="#bfc8e2" stroke-width="1.51"/><path d="M395,592L391,718L509,642Z" fill="#78a6bb" stroke="#78a6bb" stroke-width="1.51"/><path d="M356,425L338,533L464,418Z" fill="#9abad9" stroke="#9abad9" stroke-width="1.51"/><path d="M317,690L391,718L395,592Z" fill="#7ea9b9" stroke="#7ea9b9" stroke-width="1.51"/><path d="M580,803L588,953L697,888Z" fill="#4b7f85" stroke="#4b7f85" stroke-width="1.51"/><path d="M887,185L850,104L763,239Z" fill="#9ab8d8" stroke="#9ab8d8" stroke-width="1.51"/><path d="M1046,179L887,185L1041,313Z" fill="#85acc5" stroke="#85acc5" stroke-width="1.51"/><path d="M752,67L690,94L763,239Z" fill="#a9c3de" stroke="#a9c3de" stroke-width="1.51"/><path d="M409,305L319,311L356,425Z" fill="#b9c6e0" stroke="#b9c6e0" stroke-width="1.51"/><path d="M452,122L407,231L525,255Z" fill="#c8cde4" stroke="#c8cde4" stroke-width="1.51"/><path d="M850,104L752,67L763,239Z" fill="#a4bedc" stroke="#a4bedc" stroke-width="1.51"/><path d="M1121,182L1046,179L1041,313Z" fill="#7fa9b8" stroke="#7fa9b8" stroke-width="1.51"/><path d="M1045,753L1162,695L982,659Z" fill="#087f86" stroke="#087f86" stroke-width="1.51"/><path d="M1113,526L1204,416L1084,440Z" fill="#3e91a4" stroke="#3e91a4" stroke-width="1.51"/><path d="M1139,768L1162,695L1045,753Z" fill="#057977" stroke="#057977" stroke-width="1.51"/><path d="M898,952L992,898L862,794Z" fill="#1f6d79" stroke="#1f6d79" stroke-width="1.51"/><path d="M898,952L862,794L817,885Z" fill="#27717d" stroke="#27717d" stroke-width="1.51"/><path d="M391,718L403,815L580,803Z" fill="#6b9a9c" stroke="#6b9a9c" stroke-width="1.51"/><path d="M334,818L403,815L391,718Z" fill="#749e9d" stroke="#749e9d" stroke-width="1.51"/><path d="M762,1038L817,885L697,888Z" fill="#33747d" stroke="#33747d" stroke-width="1.51"/><path d="M762,1038L898,952L817,885Z" fill="#2b6f7a" stroke="#2b6f7a" stroke-width="1.51"/><path d="M1257,551L1204,416L1113,526Z" fill="#358999" stroke="#358999" stroke-width="1.51"/><path d="M1105,359L1121,182L1041,313Z" fill="#71a3b2" stroke="#71a3b2" stroke-width="1.51"/><path d="M338,533L317,690L395,592Z" fill="#88aec9" stroke="#88aec9" stroke-width="1.51"/><path d="M1135,902L1139,768L1045,753Z" fill="#05716b" stroke="#05716b" stroke-width="1.51"/><path d="M390,907L588,953L580,803Z" fill="#5b8387" stroke="#5b8387" stroke-width="1.51"/><path d="M407,231L319,311L409,305Z" fill="#c4cbe2" stroke="#c4cbe2" stroke-width="1.51"/><path d="M356,425L179,406L338,533Z" fill="#a4bfdc" stroke="#a4bfdc" stroke-width="1.51"/><path d="M166,582L201,721L317,690Z" fill="#8aafbd" stroke="#8aafbd" stroke-width="1.51"/><path d="M850,104L897,-11L752,67Z" fill="#a8c2de" stroke="#a8c2de" stroke-width="1.51"/><path d="M1046,179L979,82L887,185Z" fill="#91b3cb" stroke="#91b3cb" stroke-width="1.51"/><path d="M407,231L288,211L319,311Z" fill="#cdcfe5" stroke="#cdcfe5" stroke-width="1.51"/><path d="M579,146L452,122L525,255Z" fill="#c4cce4" stroke="#c4cce4" stroke-width="1.51"/><path d="M545,-9L452,122L579,146Z" fill="#cdd3e7" stroke="#cdd3e7" stroke-width="1.51"/><path d="M545,-9L579,146L690,94Z" fill="#c3cfe5" stroke="#c3cfe5" stroke-width="1.51"/><path d="M1046,179L1096,90L979,82Z" fill="#8fb2c2" stroke="#8fb2c2" stroke-width="1.51"/><path d="M1263,354L1121,182L1105,359Z" fill="#6c9da7" stroke="#6c9da7" stroke-width="1.51"/><path d="M588,953L666,1013L697,888Z" fill="#457a81" stroke="#457a81" stroke-width="1.51"/><path d="M522,1006L666,1013L588,953Z" fill="#4f7d83" stroke="#4f7d83" stroke-width="1.51"/><path d="M1277,657L1257,551L1162,695Z" fill="#147b7e" stroke="#147b7e" stroke-width="1.51"/><path d="M1162,695L1257,551L1113,526Z" fill="#1f8190" stroke="#1f8190" stroke-width="1.51"/><path d="M1204,416L1263,354L1105,359Z" fill="#5895a0" stroke="#5895a0" stroke-width="1.51"/><path d="M403,815L390,907L580,803Z" fill="#668e90" stroke="#668e90" stroke-width="1.51"/><path d="M317,690L334,818L391,718Z" fill="#7aa3a8" stroke="#7aa3a8" stroke-width="1.51"/><path d="M666,1013L762,1038L697,888Z" fill="#3a767f" stroke="#3a767f" stroke-width="1.51"/><path d="M1021,992L1135,902L992,898Z" fill="#0b6463" stroke="#0b6463" stroke-width="1.51"/><path d="M334,818L390,907L403,815Z" fill="#6f9292" stroke="#6f9292" stroke-width="1.51"/><path d="M1338,454L1263,354L1204,416Z" fill="#4b8d93" stroke="#4b8d93" stroke-width="1.51"/><path d="M979,82L897,-11L850,104Z" fill="#a0bdd9" stroke="#a0bdd9" stroke-width="1.51"/><path d="M1096,90L988,26L979,82Z" fill="#95b8c7" stroke="#95b8c7" stroke-width="1.51"/><path d="M390,907L522,1006L588,953Z" fill="#5d8285" stroke="#5d8285" stroke-width="1.51"/><path d="M666,1013L466,1039L762,1038Z" fill="#497b81" stroke="#497b81" stroke-width="1.51"/><path d="M988,26L897,-11L979,82Z" fill="#9ebed3" stroke="#9ebed3" stroke-width="1.51"/><path d="M752,67L693,-40L690,94Z" fill="#b5cce4" stroke="#b5cce4" stroke-width="1.51"/><path d="M897,-11L764,-32L752,67Z" fill="#aec8e1" stroke="#aec8e1" stroke-width="1.51"/><path d="M1121,182L1096,90L1046,179Z" fill="#87aeb9" stroke="#87aeb9" stroke-width="1.51"/><path d="M1242,149L1096,90L1121,182Z" fill="#85abb0" stroke="#85abb0" stroke-width="1.51"/><path d="M1257,551L1338,454L1204,416Z" fill="#398790" stroke="#398790" stroke-width="1.51"/><path d="M1261,836L1277,657L1162,695Z" fill="#047369" stroke="#047369" stroke-width="1.51"/><path d="M1312,661L1277,657L1261,836Z" fill="#047065" stroke="#047065" stroke-width="1.51"/><path d="M992,898L1135,902L1045,753Z" fill="#0a6c6a" stroke="#0a6c6a" stroke-width="1.51"/><path d="M1021,992L992,898L898,952Z" fill="#18676e" stroke="#18676e" stroke-width="1.51"/><path d="M328,69L288,211L407,231Z" fill="#d9d6e9" stroke="#d9d6e9" stroke-width="1.51"/><path d="M319,311L179,406L356,425Z" fill="#b6c6e0" stroke="#b6c6e0" stroke-width="1.51"/><path d="M877,1061L1021,992L898,952Z" fill="#1c6973" stroke="#1c6973" stroke-width="1.51"/><path d="M764,-32L693,-40L752,67Z" fill="#b5cee5" stroke="#b5cee5" stroke-width="1.51"/><path d="M452,122L328,69L407,231Z" fill="#d7d5e9" stroke="#d7d5e9" stroke-width="1.51"/><path d="M693,-40L545,-9L690,94Z" fill="#c2d3e7" stroke="#c2d3e7" stroke-width="1.51"/><path d="M390,907L466,1039L522,1006Z" fill="#618486" stroke="#618486" stroke-width="1.51"/><path d="M334,818L312,869L390,907Z" fill="#719090" stroke="#719090" stroke-width="1.51"/><path d="M222,811L312,869L334,818Z" fill="#789997" stroke="#789997" stroke-width="1.51"/><path d="M222,811L334,818L317,690Z" fill="#7da3a2" stroke="#7da3a2" stroke-width="1.51"/><path d="M466,1039L877,1061L762,1038Z" fill="#3b777f" stroke="#3b777f" stroke-width="1.51"/><path d="M762,1038L877,1061L898,952Z" fill="#286d7a" stroke="#286d7a" stroke-width="1.51"/><path d="M172,365L179,406L319,311Z" fill="#c0cbe4" stroke="#c0cbe4" stroke-width="1.51"/><path d="M1277,657L1312,661L1257,551Z" fill="#17777b" stroke="#17777b" stroke-width="1.51"/><path d="M1261,836L1162,695L1139,768Z" fill="#047267" stroke="#047267" stroke-width="1.51"/><path d="M166,582L317,690L338,533Z" fill="#8fb2cc" stroke="#8fb2cc" stroke-width="1.51"/><path d="M179,406L166,582L338,533Z" fill="#a1bcda" stroke="#a1bcda" stroke-width="1.51"/><path d="M1282,186L1242,149L1121,182Z" fill="#7fa5a5" stroke="#7fa5a5" stroke-width="1.51"/><path d="M1385,571L1338,454L1257,551Z" fill="#2c7b86" stroke="#2c7b86" stroke-width="1.51"/><path d="M63,567L124,680L166,582Z" fill="#99b9ce" stroke="#99b9ce" stroke-width="1.51"/><path d="M192,200L172,365L319,311Z" fill="#ced1e6" stroke="#ced1e6" stroke-width="1.51"/><path d="M522,1006L466,1039L666,1013Z" fill="#567f83" stroke="#567f83" stroke-width="1.51"/><path d="M361,1036L466,1039L390,907Z" fill="#688787" stroke="#688787" stroke-width="1.51"/><path d="M693,-40L628,-88L545,-9Z" fill="#c6d5e9" stroke="#c6d5e9" stroke-width="1.51"/><path d="M764,-32L795,-88L693,-40Z" fill="#b4cde4" stroke="#b4cde4" stroke-width="1.51"/><path d="M897,-11L795,-88L764,-32Z" fill="#aec8e1" stroke="#aec8e1" stroke-width="1.51"/><path d="M920,-160L795,-88L897,-11Z" fill="#a8c4de" stroke="#a8c4de" stroke-width="1.51"/><path d="M312,869L361,1036L390,907Z" fill="#6d8a89" stroke="#6d8a89" stroke-width="1.51"/><path d="M201,721L222,811L317,690Z" fill="#83a8aa" stroke="#83a8aa" stroke-width="1.51"/><path d="M66,795L222,811L201,721Z" fill="#86a8a4" stroke="#86a8a4" stroke-width="1.51"/><path d="M1135,902L1261,836L1139,768Z" fill="#03685c" stroke="#03685c" stroke-width="1.51"/><path d="M1252,908L1261,836L1135,902Z" fill="#035e50" stroke="#035e50" stroke-width="1.51"/><path d="M288,211L192,200L319,311Z" fill="#d5d4e7" stroke="#d5d4e7" stroke-width="1.51"/><path d="M352,-8L328,69L452,122Z" fill="#e1dded" stroke="#e1dded" stroke-width="1.51"/><path d="M545,-9L422,-54L452,122Z" fill="#d9dbec" stroke="#d9dbec" stroke-width="1.51"/><path d="M795,-88L628,-88L693,-40Z" fill="#b9d0e6" stroke="#b9d0e6" stroke-width="1.51"/><path d="M1096,90L1107,-38L988,26Z" fill="#95b9c2" stroke="#95b9c2" stroke-width="1.51"/><path d="M988,26L1045,-88L897,-11Z" fill="#9fbfd1" stroke="#9fbfd1" stroke-width="1.51"/><path d="M1282,186L1121,182L1263,354Z" fill="#759fa1" stroke="#759fa1" stroke-width="1.51"/><path d="M1338,454L1349,354L1263,354Z" fill="#50898f" stroke="#50898f" stroke-width="1.51"/><path d="M1349,354L1282,186L1263,354Z" fill="#669495" stroke="#669495" stroke-width="1.51"/><path d="M328,69L192,200L288,211Z" fill="#dfdaeb" stroke="#dfdaeb" stroke-width="1.51"/><path d="M1312,661L1385,571L1257,551Z" fill="#1d757d" stroke="#1d757d" stroke-width="1.51"/><path d="M1338,454L1450,327L1349,354Z" fill="#508389" stroke="#508389" stroke-width="1.51"/><path d="M1443,644L1385,571L1312,661Z" fill="#156c70" stroke="#156c70" stroke-width="1.51"/><path d="M1021,992L1099,1048L1135,902Z" fill="#04625e" stroke="#04625e" stroke-width="1.51"/><path d="M877,1061L1099,1048L1021,992Z" fill="#14666a" stroke="#14666a" stroke-width="1.51"/><path d="M1261,836L1387,802L1312,661Z" fill="#026757" stroke="#026757" stroke-width="1.51"/><path d="M1208,1020L1252,908L1135,902Z" fill="#035c4f" stroke="#035c4f" stroke-width="1.51"/><path d="M166,582L124,680L201,721Z" fill="#8fb3c0" stroke="#8fb3c0" stroke-width="1.51"/><path d="M63,567L166,582L48,439Z" fill="#a6c1dd" stroke="#a6c1dd" stroke-width="1.51"/><path d="M166,582L179,406L48,439Z" fill="#acc5e0" stroke="#acc5e0" stroke-width="1.51"/><path d="M466,1039L225,1045L877,1061Z" fill="#5a8184" stroke="#5a8184" stroke-width="1.51"/><path d="M225,1045L361,1036L312,869Z" fill="#718c8a" stroke="#718c8a" stroke-width="1.51"/><path d="M205,896L312,869L222,811Z" fill="#799693" stroke="#799693" stroke-width="1.51"/><path d="M513,-99L422,-54L545,-9Z" fill="#d8dcec" stroke="#d8dcec" stroke-width="1.51"/><path d="M159,80L119,187L192,200Z" fill="#e7e0ef" stroke="#e7e0ef" stroke-width="1.51"/><path d="M422,-54L352,-8L452,122Z" fill="#e1dfee" stroke="#e1dfee" stroke-width="1.51"/><path d="M920,-160L513,-99L628,-88Z" fill="#bcd1e6" stroke="#bcd1e6" stroke-width="1.51"/><path d="M628,-88L513,-99L545,-9Z" fill="#d0d9eb" stroke="#d0d9eb" stroke-width="1.51"/><path d="M1268,-21L1096,90L1242,149Z" fill="#8aadac" stroke="#8aadac" stroke-width="1.51"/><path d="M1268,-21L1107,-38L1096,90Z" fill="#91b5b5" stroke="#91b5b5" stroke-width="1.51"/><path d="M66,795L205,896L222,811Z" fill="#819f99" stroke="#819f99" stroke-width="1.51"/><path d="M1107,-38L1045,-88L988,26Z" fill="#98bdc6" stroke="#98bdc6" stroke-width="1.51"/><path d="M795,-88L920,-160L628,-88Z" fill="#b1cbe3" stroke="#b1cbe3" stroke-width="1.51"/><path d="M1376,910L1387,802L1261,836Z" fill="#015847" stroke="#015847" stroke-width="1.51"/><path d="M1099,1048L1208,1020L1135,902Z" fill="#045f56" stroke="#045f56" stroke-width="1.51"/><path d="M124,680L66,795L201,721Z" fill="#8aaeb0" stroke="#8aaeb0" stroke-width="1.51"/><path d="M48,439L179,406L172,365Z" fill="#bccce4" stroke="#bccce4" stroke-width="1.51"/><path d="M1045,-88L920,-160L897,-11Z" fill="#a1c0d5" stroke="#a1c0d5" stroke-width="1.51"/><path d="M1349,354L1398,254L1282,186Z" fill="#6a9192" stroke="#6a9192" stroke-width="1.51"/><path d="M1282,186L1338,92L1242,149Z" fill="#7fa19d" stroke="#7fa19d" stroke-width="1.51"/><path d="M1450,327L1398,254L1349,354Z" fill="#5f868a" stroke="#5f868a" stroke-width="1.51"/><path d="M1376,910L1261,836L1252,908Z" fill="#015746" stroke="#015746" stroke-width="1.51"/><path d="M1485,475L1450,327L1338,454Z" fill="#427a82" stroke="#427a82" stroke-width="1.51"/><path d="M42,309L48,439L172,365Z" fill="#c6d2e6" stroke="#c6d2e6" stroke-width="1.51"/><path d="M1387,802L1443,644L1312,661Z" fill="#04675f" stroke="#04675f" stroke-width="1.51"/><path d="M513,-99L428,-119L422,-54Z" fill="#dddeed" stroke="#dddeed" stroke-width="1.51"/><path d="M422,-54L428,-119L352,-8Z" fill="#e3e1ef" stroke="#e3e1ef" stroke-width="1.51"/><path d="M159,80L192,200L328,69Z" fill="#e8dfee" stroke="#e8dfee" stroke-width="1.51"/><path d="M920,-160L428,-119L513,-99Z" fill="#c7d5e9" stroke="#c7d5e9" stroke-width="1.51"/><path d="M192,200L119,187L172,365Z" fill="#dbd8ea" stroke="#dbd8ea" stroke-width="1.51"/><path d="M159,80L328,69L165,-44Z" fill="#efe7f3" stroke="#efe7f3" stroke-width="1.51"/><path d="M1398,254L1338,92L1282,186Z" fill="#789896" stroke="#789896" stroke-width="1.51"/><path d="M1107,-38L1119,-126L1045,-88Z" fill="#95bbbf" stroke="#95bbbf" stroke-width="1.51"/><path d="M1437,19L1332,-17L1338,92Z" fill="#84a198" stroke="#84a198" stroke-width="1.51"/><path d="M1485,475L1338,454L1385,571Z" fill="#2f757f" stroke="#2f757f" stroke-width="1.51"/><path d="M165,-44L328,69L352,-8Z" fill="#ede7f2" stroke="#ede7f2" stroke-width="1.51"/><path d="M-5,301L42,309L119,187Z" fill="#dddded" stroke="#dddded" stroke-width="1.51"/><path d="M119,187L42,309L172,365Z" fill="#d6d8ea" stroke="#d6d8ea" stroke-width="1.51"/><path d="M1509,566L1485,475L1385,571Z" fill="#266d79" stroke="#266d79" stroke-width="1.51"/><path d="M1208,-81L1119,-126L1107,-38Z" fill="#92b7b7" stroke="#92b7b7" stroke-width="1.51"/><path d="M1045,-88L1119,-126L920,-160Z" fill="#9abdc9" stroke="#9abdc9" stroke-width="1.51"/><path d="M205,896L225,1045L312,869Z" fill="#758e8b" stroke="#758e8b" stroke-width="1.51"/><path d="M-31,657L66,795L124,680Z" fill="#90b5b7" stroke="#90b5b7" stroke-width="1.51"/><path d="M-31,657L124,680L63,567Z" fill="#98bbca" stroke="#98bbca" stroke-width="1.51"/><path d="M1540,666L1509,566L1443,644Z" fill="#14666a" stroke="#14666a" stroke-width="1.51"/><path d="M1361,1047L1376,910L1252,908Z" fill="#015140" stroke="#015140" stroke-width="1.51"/><path d="M1338,92L1268,-21L1242,149Z" fill="#86a7a0" stroke="#86a7a0" stroke-width="1.51"/><path d="M81,1025L225,1045L205,896Z" fill="#7a928e" stroke="#7a928e" stroke-width="1.51"/><path d="M361,1036L225,1045L466,1039Z" fill="#6d8a89" stroke="#6d8a89" stroke-width="1.51"/><path d="M1268,-21L1208,-81L1107,-38Z" fill="#90b4b0" stroke="#90b4b0" stroke-width="1.51"/><path d="M1443,644L1509,566L1385,571Z" fill="#1b6871" stroke="#1b6871" stroke-width="1.51"/><path d="M1509,220L1398,254L1450,327Z" fill="#658687" stroke="#658687" stroke-width="1.51"/><path d="M1473,809L1443,644L1387,802Z" fill="#035d4f" stroke="#035d4f" stroke-width="1.51"/><path d="M66,795L69,891L205,896Z" fill="#809c96" stroke="#809c96" stroke-width="1.51"/><path d="M-57,785L69,891L66,795Z" fill="#88a89f" stroke="#88a89f" stroke-width="1.51"/><path d="M-62,478L-29,603L63,567Z" fill="#a8c4df" stroke="#a8c4df" stroke-width="1.51"/><path d="M42,309L-5,301L48,439Z" fill="#cfd7ea" stroke="#cfd7ea" stroke-width="1.51"/><path d="M-61,257L-5,301L119,187Z" fill="#e2e1ef" stroke="#e2e1ef" stroke-width="1.51"/><path d="M-62,478L63,567L48,439Z" fill="#afc9e2" stroke="#afc9e2" stroke-width="1.51"/><path d="M1483,899L1473,809L1387,802Z" fill="#01503f" stroke="#01503f" stroke-width="1.51"/><path d="M1268,-21L1371,-124L1208,-81Z" fill="#8bada4" stroke="#8bada4" stroke-width="1.51"/><path d="M1338,92L1332,-17L1268,-21Z" fill="#88a99f" stroke="#88a99f" stroke-width="1.51"/><path d="M1423,90L1338,92L1398,254Z" fill="#799592" stroke="#799592" stroke-width="1.51"/><path d="M-29,603L-31,657L63,567Z" fill="#9fbfd1" stroke="#9fbfd1" stroke-width="1.51"/><path d="M1509,220L1450,327L1582,228Z" fill="#678687" stroke="#678687" stroke-width="1.51"/><path d="M1509,220L1423,90L1398,254Z" fill="#718c8a" stroke="#718c8a" stroke-width="1.51"/><path d="M159,80L49,81L119,187Z" fill="#efe5f2" stroke="#efe5f2" stroke-width="1.51"/><path d="M272,-146L165,-44L352,-8Z" fill="#efe8f3" stroke="#efe8f3" stroke-width="1.51"/><path d="M1582,456L1450,327L1485,475Z" fill="#417880" stroke="#417880" stroke-width="1.51"/><path d="M1473,809L1540,666L1443,644Z" fill="#046058" stroke="#046058" stroke-width="1.51"/><path d="M-5,301L-62,478L48,439Z" fill="#c2d3e8" stroke="#c2d3e8" stroke-width="1.51"/><path d="M-29,603L-145,688L-31,657Z" fill="#99bcc7" stroke="#99bcc7" stroke-width="1.51"/><path d="M428,-119L272,-146L352,-8Z" fill="#e8e4f1" stroke="#e8e4f1" stroke-width="1.51"/><path d="M920,-160L272,-146L428,-119Z" fill="#d3daeb" stroke="#d3daeb" stroke-width="1.51"/><path d="M877,1061L1361,1047L1099,1048Z" fill="#04615a" stroke="#04615a" stroke-width="1.51"/><path d="M1099,1048L1361,1047L1208,1020Z" fill="#025b4c" stroke="#025b4c" stroke-width="1.51"/><path d="M1208,1020L1361,1047L1252,908Z" fill="#015746" stroke="#015746" stroke-width="1.51"/><path d="M1376,910L1483,899L1387,802Z" fill="#014d3d" stroke="#014d3d" stroke-width="1.51"/><path d="M1582,456L1485,475L1509,566Z" fill="#2e717b" stroke="#2e717b" stroke-width="1.51"/><path d="M76,2L49,81L159,80Z" fill="#f5ecf5" stroke="#f5ecf5" stroke-width="1.51"/><path d="M-5,301L-134,360L-62,478Z" fill="#c9d6e9" stroke="#c9d6e9" stroke-width="1.51"/><path d="M1479,1019L1483,899L1376,910Z" fill="#014636" stroke="#014636" stroke-width="1.51"/><path d="M1473,809L1597,779L1540,666Z" fill="#035c4e" stroke="#035c4e" stroke-width="1.51"/><path d="M1598,609L1582,456L1509,566Z" fill="#256c79" stroke="#256c79" stroke-width="1.51"/><path d="M69,891L81,1025L205,896Z" fill="#7c948f" stroke="#7c948f" stroke-width="1.51"/><path d="M10,934L81,1025L69,891Z" fill="#7f9891" stroke="#7f9891" stroke-width="1.51"/><path d="M165,-44L76,2L159,80Z" fill="#f7eef6" stroke="#f7eef6" stroke-width="1.51"/><path d="M110,-132L76,2L165,-44Z" fill="#f9f0f7" stroke="#f9f0f7" stroke-width="1.51"/><path d="M1423,90L1437,19L1338,92Z" fill="#809994" stroke="#809994" stroke-width="1.51"/><path d="M1332,-17L1371,-124L1268,-21Z" fill="#89a89f" stroke="#89a89f" stroke-width="1.51"/><path d="M1208,-81L1371,-124L1119,-126Z" fill="#8eb2aa" stroke="#8eb2aa" stroke-width="1.51"/><path d="M1560,119L1437,19L1423,90Z" fill="#7c948f" stroke="#7c948f" stroke-width="1.51"/><path d="M-24,92L119,187L49,81Z" fill="#f2e9f3" stroke="#f2e9f3" stroke-width="1.51"/><path d="M-24,92L-61,257L119,187Z" fill="#ede7f2" stroke="#ede7f2" stroke-width="1.51"/><path d="M272,-146L201,-137L165,-44Z" fill="#f3ebf4" stroke="#f3ebf4" stroke-width="1.51"/><path d="M-31,657L-57,785L66,795Z" fill="#90b4b0" stroke="#90b4b0" stroke-width="1.51"/><path d="M-145,688L-57,785L-31,657Z" fill="#93b7b8" stroke="#93b7b8" stroke-width="1.51"/><path d="M-57,785L10,934L69,891Z" fill="#85a097" stroke="#85a097" stroke-width="1.51"/><path d="M1540,666L1598,609L1509,566Z" fill="#16676c" stroke="#16676c" stroke-width="1.51"/><path d="M1597,779L1598,609L1540,666Z" fill="#04625d" stroke="#04625d" stroke-width="1.51"/><path d="M-133,496L-115,530L-62,478Z" fill="#afc9e2" stroke="#afc9e2" stroke-width="1.51"/><path d="M-62,478L-115,530L-29,603Z" fill="#a9c5df" stroke="#a9c5df" stroke-width="1.51"/><path d="M-31,-7L49,81L76,2Z" fill="#fcf2f9" stroke="#fcf2f9" stroke-width="1.51"/><path d="M-31,-7L-24,92L49,81Z" fill="#faf2f8" stroke="#faf2f8" stroke-width="1.51"/><path d="M1509,220L1560,119L1423,90Z" fill="#768f8c" stroke="#768f8c" stroke-width="1.51"/><path d="M1582,456L1618,380L1450,327Z" fill="#4b7b82" stroke="#4b7b82" stroke-width="1.51"/><path d="M1598,609L1618,380L1582,456Z" fill="#32737d" stroke="#32737d" stroke-width="1.51"/><path d="M1618,380L1582,228L1450,327Z" fill="#5d8285" stroke="#5d8285" stroke-width="1.51"/><path d="M-134,360L-133,496L-62,478Z" fill="#b8d0e6" stroke="#b8d0e6" stroke-width="1.51"/><path d="M-115,530L-145,688L-29,603Z" fill="#9fbfd2" stroke="#9fbfd2" stroke-width="1.51"/><path d="M-134,360L-5,301L-61,257Z" fill="#d9ddec" stroke="#d9ddec" stroke-width="1.51"/><path d="M1579,865L1597,779L1473,809Z" fill="#015442" stroke="#015442" stroke-width="1.51"/><path d="M1361,1047L1479,1019L1376,910Z" fill="#014939" stroke="#014939" stroke-width="1.51"/><path d="M1598,609L1597,779L1618,380Z" fill="#1b6872" stroke="#1b6872" stroke-width="1.51"/><path d="M1579,865L1473,809L1483,899Z" fill="#014d3c" stroke="#014d3c" stroke-width="1.51"/><path d="M1437,19L1371,-124L1332,-17Z" fill="#86a299" stroke="#86a299" stroke-width="1.51"/><path d="M1119,-126L1430,-151L920,-160Z" fill="#92b6b6" stroke="#92b6b6" stroke-width="1.51"/><path d="M1430,-151L1371,-124L1437,19Z" fill="#849e95" stroke="#849e95" stroke-width="1.51"/><path d="M10,934L14,1016L81,1025Z" fill="#809991" stroke="#809991" stroke-width="1.51"/><path d="M81,1025L14,1016L225,1045Z" fill="#7d958f" stroke="#7d958f" stroke-width="1.51"/><path d="M-138,944L14,1016L10,934Z" fill="#829b92" stroke="#829b92" stroke-width="1.51"/><path d="M-123,247L-134,360L-61,257Z" fill="#dcdeed" stroke="#dcdeed" stroke-width="1.51"/><path d="M1594,-11L1560,119L1582,228Z" fill="#7a918d" stroke="#7a918d" stroke-width="1.51"/><path d="M1582,228L1560,119L1509,220Z" fill="#718c8a" stroke="#718c8a" stroke-width="1.51"/><path d="M1554,1053L1579,865L1483,899Z" fill="#014636" stroke="#014636" stroke-width="1.51"/><path d="M272,-146L110,-132L201,-137Z" fill="#f4ecf5" stroke="#f4ecf5" stroke-width="1.51"/><path d="M201,-137L110,-132L165,-44Z" fill="#f6edf6" stroke="#f6edf6" stroke-width="1.51"/><path d="M-57,785L-138,944L10,934Z" fill="#839d95" stroke="#839d95" stroke-width="1.51"/><path d="M-133,496L-145,688L-115,530Z" fill="#a4c2db" stroke="#a4c2db" stroke-width="1.51"/><path d="M-134,360L-145,688L-133,496Z" fill="#adc8e0" stroke="#adc8e0" stroke-width="1.51"/><path d="M-135,100L-61,257L-24,92Z" fill="#f1e9f4" stroke="#f1e9f4" stroke-width="1.51"/><path d="M-135,100L-123,247L-61,257Z" fill="#eae6f1" stroke="#eae6f1" stroke-width="1.51"/><path d="M-26,-91L-31,-7L76,2Z" fill="#fff6fb" stroke="#fff6fb" stroke-width="1.51"/><path d="M-145,688L-151,776L-57,785Z" fill="#90b4af" stroke="#90b4af" stroke-width="1.51"/><path d="M-179,-164L-151,776L-145,688Z" fill="#bbd1e6" stroke="#bbd1e6" stroke-width="1.51"/><path d="M1582,-128L1430,-151L1437,19Z" fill="#829b92" stroke="#829b92" stroke-width="1.51"/><path d="M1371,-124L1430,-151L1119,-126Z" fill="#8aaba1" stroke="#8aaba1" stroke-width="1.51"/><path d="M1479,1019L1554,1053L1483,899Z" fill="#014636" stroke="#014636" stroke-width="1.51"/><path d="M1579,865L1554,1053L1597,779Z" fill="#014636" stroke="#014636" stroke-width="1.51"/><path d="M1361,1047L1554,1053L1479,1019Z" fill="#014636" stroke="#014636" stroke-width="1.51"/><path d="M877,1061L1554,1053L1361,1047Z" fill="#015847" stroke="#015847" stroke-width="1.51"/><path d="M-132,8L-135,100L-24,92Z" fill="#f9f1f7" stroke="#f9f1f7" stroke-width="1.51"/><path d="M-123,247L-135,100L-134,360Z" fill="#e5e3f0" stroke="#e5e3f0" stroke-width="1.51"/><path d="M-134,360L-179,-164L-145,688Z" fill="#dbdeed" stroke="#dbdeed" stroke-width="1.51"/><path d="M-31,-7L-132,8L-24,92Z" fill="#fcf4f9" stroke="#fcf4f9" stroke-width="1.51"/><path d="M110,-132L-26,-91L76,2Z" fill="#fcf4fa" stroke="#fcf4fa" stroke-width="1.51"/><path d="M-151,776L-138,944L-57,785Z" fill="#88a79e" stroke="#88a79e" stroke-width="1.51"/><path d="M1560,119L1594,-11L1437,19Z" fill="#7f9790" stroke="#7f9790" stroke-width="1.51"/><path d="M1618,380L1594,-11L1582,228Z" fill="#6f8b8a" stroke="#6f8b8a" stroke-width="1.51"/><path d="M-138,944L-151,981L14,1016Z" fill="#829b92" stroke="#829b92" stroke-width="1.51"/><path d="M-151,776L-151,981L-138,944Z" fill="#829b92" stroke="#829b92" stroke-width="1.51"/><path d="M-26,-91L-132,8L-31,-7Z" fill="#fff7fb" stroke="#fff7fb" stroke-width="1.51"/><path d="M1594,-11L1582,-128L1437,19Z" fill="#829b92" stroke="#829b92" stroke-width="1.51"/><path d="M-26,-91L-179,-164L-132,8Z" fill="#fff7fb" stroke="#fff7fb" stroke-width="1.51"/><path d="M-132,8L-179,-164L-135,100Z" fill="#fff7fb" stroke="#fff7fb" stroke-width="1.51"/><path d="M-135,100L-179,-164L-134,360Z" fill="#f6eef6" stroke="#f6eef6" stroke-width="1.51"/><path d="M-151,776L-179,-164L-151,981Z" fill="#aac6e0" stroke="#aac6e0" stroke-width="1.51"/><path d="M110,-132L-179,-164L-26,-91Z" fill="#fff7fb" stroke="#fff7fb" stroke-width="1.51"/><path d="M272,-146L-179,-164L110,-132Z" fill="#fbf3f9" stroke="#fbf3f9" stroke-width="1.51"/><path d="M920,-160L-179,-164L272,-146Z" fill="#e9e5f1" stroke="#e9e5f1" stroke-width="1.51"/></svg>